<svg xmlns="http://www.w3.org/2000/svg" viewBox="0 0 512 512">
  <defs>
    <linearGradient id="bg" x1="0" y1="0" x2="1" y2="1">
      <stop offset="0" stop-color="#3987e5"/>
      <stop offset="1" stop-color="#1c5cab"/>
    </linearGradient>
  </defs>
  <rect width="512" height="512" rx="112" fill="url(#bg)"/>

  <!-- sol de verano -->
  <circle cx="118" cy="116" r="42" fill="#ffd23f"/>
  <g stroke="#ffd23f" stroke-width="15" stroke-linecap="round">
    <line x1="118" y1="38" x2="118" y2="56"/>
    <line x1="118" y1="176" x2="118" y2="194"/>
    <line x1="40" y1="116" x2="58" y2="116"/>
    <line x1="178" y1="116" x2="196" y2="116"/>
    <line x1="63" y1="61" x2="76" y2="74"/>
    <line x1="160" y1="158" x2="173" y2="171"/>
    <line x1="63" y1="171" x2="76" y2="158"/>
    <line x1="160" y1="74" x2="173" y2="61"/>
  </g>

  <!-- balón -->
  <circle cx="300" cy="300" r="150" fill="#ffffff"/>
  <path d="M300 248 L250 284 L269 342 L331 342 L350 284 Z" fill="#1a1a19"/>
  <g stroke="#1a1a19" stroke-width="14" stroke-linecap="round">
    <line x1="300" y1="248" x2="300" y2="164"/>
    <line x1="250" y1="284" x2="166" y2="257"/>
    <line x1="269" y1="342" x2="218" y2="412"/>
    <line x1="331" y1="342" x2="382" y2="412"/>
    <line x1="350" y1="284" x2="434" y2="257"/>
  </g>

  <!-- check de hábito cumplido -->
  <circle cx="398" cy="398" r="82" fill="#0ca30c" stroke="#ffffff" stroke-width="16"/>
  <path d="M358 400 l28 30 54 -60" stroke="#ffffff" stroke-width="26" fill="none"
        stroke-linecap="round" stroke-linejoin="round"/>
</svg>
